<svg version="1.1" id="Layer_1" xmlns="http://www.w3.org/2000/svg" xmlns:xlink="http://www.w3.org/1999/xlink" x="0px" y="0px"
	 width="100%" viewBox="0 0 1254 1254" enable-background="new 0 0 1254 1254" xml:space="preserve">
<path fill="#021428" opacity="1.000000" stroke="none"
	d="
M0.999999,1045.000000
	C1.000000,766.970642 1.000000,488.941254 1.378285,210.305832
	C3.714351,189.205414 8.134705,169.231384 16.058289,150.245636
	C51.106529,66.266304 113.493813,16.862793 203.573715,2.735900
	C206.078293,2.343117 208.525848,1.586801 211.000000,1.000000
	C488.029388,1.000000 765.058777,1.000000 1042.746582,1.364474
	C1050.831055,2.664419 1058.342407,3.166399 1065.669434,4.606133
	C1111.062012,13.525640 1150.809448,33.554070 1184.100586,65.853630
	C1220.856323,101.514542 1243.611450,144.632339 1252.245850,195.154175
	C1253.149048,200.438660 1254.081299,205.718170 1255.000000,211.000000
	C1255.000000,488.696045 1255.000000,766.392090 1254.635742,1044.739502
	C1252.953491,1054.269531 1252.155151,1063.261841 1250.237671,1072.009033
	C1229.730713,1165.564453 1154.838867,1236.579102 1060.404541,1252.238159
	C1054.609741,1253.198975 1048.801758,1254.081177 1043.000000,1255.000000
	C765.970642,1255.000000 488.941254,1255.000000 211.281769,1254.637451
	C203.253616,1253.139038 195.807007,1252.254028 188.465012,1250.829590
	C95.532181,1232.797974 22.017550,1158.848389 4.499078,1065.829834
	C3.196256,1058.912231 2.160110,1051.944458 0.999999,1045.000000
M655.423706,829.429138
	C656.379517,829.620239 657.335083,829.977112 658.291077,829.978271
	C680.989746,830.005981 703.688538,830.011475 726.387024,829.947021
	C727.600586,829.943542 728.812317,829.290466 730.663391,828.731567
	C731.101257,828.795654 731.539062,828.859741 732.213135,829.278015
	C732.511963,829.096191 732.810791,828.914429 733.278015,827.981384
	C733.278015,820.590942 733.278015,813.200500 733.278015,805.470703
	C715.210876,805.470703 697.776001,805.470703 679.803284,805.470703
	C679.803284,772.553711 679.803284,739.996216 679.803284,707.064087
	C670.973633,707.064087 662.684204,707.064087 653.661926,707.505493
	C653.444702,708.618835 653.038635,709.731934 653.037720,710.845459
	C653.006836,748.584045 653.001770,786.322571 653.067383,824.061096
	C653.069702,825.423096 653.822693,826.783813 654.531799,828.232605
	C654.727173,828.354980 654.834290,828.531006 655.423706,829.429138
M421.688446,828.277893
	C421.688446,828.277893 421.897949,828.700745 422.433807,829.389099
	C423.383942,829.594727 424.333832,829.978760 425.284210,829.979858
	C449.633118,830.008179 473.982056,830.010925 498.330841,829.948914
	C499.555542,829.945801 500.778656,829.322205 502.626160,828.408264
	C502.626160,820.982117 502.626160,813.555908 502.626160,805.668274
	C484.206238,805.668274 465.698364,805.668274 446.867859,805.668274
	C446.867859,796.816467 446.867859,788.417786 447.822510,780.007568
	C462.766174,779.997620 477.710297,780.039917 492.652893,779.907349
	C494.407837,779.891785 496.154236,778.914185 497.878113,777.569824
	C497.995758,775.375122 498.113403,773.180420 498.956604,770.735168
	C500.297485,767.056152 501.361603,763.395325 498.004303,759.170715
	C498.504089,755.815308 496.323059,755.947998 494.009766,755.956238
	C480.033875,756.006104 466.057709,755.989990 452.081635,755.995667
	C450.334991,755.996338 448.588379,755.995789 446.867157,755.995789
	C446.867157,747.007019 446.867157,738.750793 446.867157,729.928711
	C465.363068,729.928711 483.565643,729.928711 501.996429,729.928711
	C501.996429,721.907959 501.996429,714.454834 501.782776,706.221497
	C500.785553,705.819763 499.789368,705.070068 498.791016,705.067200
	C474.335144,704.997070 449.878906,704.979980 425.423340,705.084290
	C424.280609,705.089172 423.143036,706.303528 421.914032,707.138123
	C421.914032,707.138123 421.710114,707.136658 420.888916,707.453674
	C420.591827,708.856750 420.037170,710.259399 420.035309,711.662903
	C419.986053,748.855408 419.974792,786.048096 420.055389,823.240479
	C420.058929,824.875305 420.990967,826.508240 421.688446,828.277893
M298.857544,828.181580
	C299.301971,828.357544 299.746124,828.686523 300.190887,828.687317
	C315.512146,828.714844 330.847656,829.126709 346.150909,828.602051
	C363.486115,828.007690 378.749847,822.390625 389.479187,807.699097
	C399.127472,794.487915 401.140381,779.312073 400.747498,763.586548
	C399.908691,730.008850 378.498993,707.772827 346.054260,707.065125
	C330.243347,706.720215 314.417175,707.075989 297.807556,707.475403
	C297.543182,711.559387 297.057281,715.643005 297.049255,719.727478
	C296.980804,754.521057 296.987061,789.314819 297.043640,824.108459
	C297.045563,825.284546 297.815735,826.459412 298.857544,828.181580
M882.242554,828.445312
	C900.202820,828.513855 918.163879,828.689026 936.122803,828.564697
	C939.898010,828.538574 943.739075,827.696411 947.424133,826.743958
	C966.247314,821.878723 976.205811,805.720520 972.168091,786.867371
	C969.792236,775.774231 962.635742,769.094727 951.963440,765.564148
	C969.119263,754.248718 973.543579,737.184692 963.297913,721.609070
	C956.084290,710.642761 944.680847,707.411377 932.513306,707.098633
	C915.552734,706.662842 898.571777,707.022522 880.807617,707.433105
	C880.541504,708.525330 880.044128,709.617310 880.042908,710.709839
	C880.000183,748.529968 879.989746,786.350098 880.064758,824.170166
	C880.067200,825.429077 881.001038,826.686096 882.242554,828.445312
M577.329956,235.781235
	C622.478699,229.608536 667.424805,230.612167 711.923096,240.679474
	C794.434387,259.346832 864.434509,299.928955 921.851746,362.049713
	C957.421387,400.533234 984.768982,444.212311 1003.287476,493.285797
	C1019.480774,536.197449 1027.964233,580.645691 1029.114380,626.496094
	C1029.327271,634.985535 1035.692627,641.516113 1043.888306,641.705933
	C1052.149170,641.897278 1058.789673,635.635620 1059.221313,627.166931
	C1060.667969,598.778198 1059.380249,570.488342 1054.578247,542.490356
	C1037.383423,442.239471 991.419800,357.528534 915.597656,289.620972
	C843.621155,225.157669 758.566772,190.418808 662.638123,182.451935
	C603.678589,177.555359 545.979919,185.149246 489.690460,203.523438
	C438.911560,220.098846 392.724976,245.110672 351.703949,279.249359
	C280.947083,338.134918 233.704498,412.335297 209.492798,501.093109
	C198.188477,542.533630 193.743759,584.818665 195.737396,627.756958
	C195.990509,633.208374 198.358887,637.325256 203.087799,639.999512
	C213.779678,646.045715 225.336868,639.081909 225.687393,626.334412
	C226.681473,590.182434 232.206726,554.705872 242.873352,520.189331
	C271.207367,428.502167 325.380402,355.546204 404.342285,301.298859
	C456.278595,265.618225 513.929871,244.143677 577.329956,235.781235
M1059.038086,725.569458
	C1059.311646,722.424072 1059.737671,719.283081 1059.828857,716.132446
	C1060.057739,708.227600 1054.192261,701.456909 1046.909180,701.032715
	C1038.299561,700.531311 1031.681519,706.275269 1030.994873,714.789978
	C1030.794678,717.271545 1030.411255,719.737915 1030.177490,722.217407
	C1026.985107,756.071350 1017.125122,788.081848 1002.607727,818.633057
	C980.623230,864.898560 949.186584,903.912292 910.469299,937.307434
	C869.960083,972.248047 824.195923,997.866577 773.709167,1015.132507
	C737.661377,1027.460449 700.577148,1034.761719 662.509033,1037.179321
	C628.151184,1039.361328 593.999573,1038.099121 560.052490,1032.250366
	C529.295593,1026.951172 499.414032,1018.605713 470.383453,1007.060608
	C437.104370,993.825928 405.820160,977.010132 376.698669,956.182190
	C348.775146,936.211060 323.914978,912.907349 302.018707,886.501099
	C275.858795,854.953186 255.477829,819.971313 241.396881,781.464539
	C233.378128,759.536011 228.110825,736.874390 225.105148,713.689331
	C224.076996,705.758301 217.160812,700.324829 209.753204,701.096130
	C201.971649,701.906372 196.480942,708.080383 197.077225,716.211182
	C197.659180,724.146545 198.765533,732.056641 199.940033,739.933350
	C207.915161,793.417236 228.241287,842.066162 258.538147,886.555542
	C288.797302,930.989563 327.049255,967.537476 371.366913,997.785034
	C412.518524,1025.871826 456.977386,1047.057373 504.831177,1061.042603
	C539.765503,1071.252197 575.369751,1077.622070 611.762451,1078.954224
	C626.371826,1079.489136 641.024353,1079.284912 655.644897,1078.922119
	C664.935669,1078.691528 674.242188,1077.868652 683.475159,1076.758301
	C713.744446,1073.118286 743.370300,1066.587891 772.418274,1057.198364
	C806.318604,1046.240234 838.489014,1031.549683 868.953247,1013.215515
	C909.493652,988.817139 945.346191,958.787170 975.996216,922.613281
	C1005.703857,887.551636 1028.613159,848.675232 1043.176758,804.972778
	C1051.681274,779.452087 1057.371338,753.394714 1059.038086,725.569458
M476.001678,380.510101
	C468.158752,374.594543 460.570587,368.289581 452.368622,362.922699
	C448.071014,360.110565 442.820557,357.815857 437.783386,357.262268
	C426.262421,355.996185 415.906067,363.177094 412.009918,373.781433
	C407.938660,384.862244 411.243500,396.926636 420.733856,404.236450
	C450.680481,427.302307 480.711945,450.257996 510.708984,473.258423
	C522.684692,482.440857 534.656250,491.628723 546.931580,501.045776
	C545.661865,502.087646 544.801941,502.817810 543.916748,503.516052
	C502.724640,536.008545 461.542419,568.513733 420.328156,600.978149
	C409.139038,609.791809 406.939636,626.735107 415.630829,638.112671
	C424.469788,649.683655 439.794403,651.649841 451.508881,642.520325
	C503.265930,602.184082 555.006897,561.827087 606.693909,521.401184
	C620.406738,510.676025 619.832214,489.488892 605.963074,479.004486
	C562.792786,446.369934 519.700562,413.632172 476.001678,380.510101
M839.977661,601.623901
	C834.437561,594.513062 827.452515,590.590454 818.148254,590.652649
	C765.190369,591.006775 712.231201,591.179077 659.272949,591.478088
	C643.709106,591.565979 632.456238,602.823853 632.721069,617.794189
	C632.982788,632.595154 644.307800,643.238892 659.638855,643.152161
	C712.263611,642.854370 764.888489,642.560120 817.513428,642.294128
	C839.970337,642.180664 851.660828,621.733337 839.977661,601.623901
M831.174805,809.336487
	C833.089722,814.832886 834.918030,820.362305 836.989380,825.799072
	C837.427795,826.949890 838.732971,828.576904 839.676086,828.602356
	C847.884521,828.823730 856.101379,828.730164 864.903259,828.730164
	C863.385132,824.492981 862.177246,821.065491 860.930969,817.652039
	C847.981140,782.184326 834.988403,746.732117 822.135132,711.229370
	C821.009216,708.119446 819.622986,706.704102 816.126099,706.896545
	C810.479309,707.207336 804.766296,707.364319 799.149170,706.847717
	C794.177124,706.390381 792.366211,708.511902 790.813843,712.889832
	C780.525330,741.905457 769.935669,770.814270 759.463013,799.764709
	C756.035339,809.240051 752.664124,818.735779 749.075378,828.757690
	C757.083801,828.757690 764.399841,828.607483 771.704834,828.825928
	C774.978638,828.923767 776.279724,827.656616 777.228027,824.616821
	C779.390930,817.683899 782.030823,810.899841 784.487732,804.024841
	C798.177612,804.024841 811.497009,804.170654 824.809509,803.930176
	C828.491089,803.863708 830.420044,804.999146 831.174805,809.336487
M627.113647,722.714661
	C628.898743,717.624634 630.683899,712.534607 632.614746,707.028992
	C624.026855,707.028992 616.203857,706.894104 608.395081,707.166504
	C607.145996,707.209961 605.321594,708.843872 604.849243,710.138733
	C601.717407,718.723511 598.880981,727.416138 595.949951,736.074097
	C589.190125,756.042236 582.431274,776.010620 575.336975,796.968933
	C573.944885,792.976562 572.839539,789.889648 571.790100,786.783813
	C563.323425,761.726624 554.904358,736.653137 546.328064,711.633606
	C545.730957,709.891724 544.052856,707.277649 542.772400,707.214905
	C534.553467,706.812561 526.305176,707.009399 518.209900,707.009399
	C518.047363,707.773254 517.940308,707.962097 517.988159,708.095459
	C532.090576,747.422729 546.179749,786.754761 560.429443,826.028503
	C560.869507,827.241211 562.946960,828.557373 564.313965,828.617249
	C570.799133,828.901062 577.322815,828.461426 583.792480,828.889160
	C587.907837,829.161316 589.537231,827.593994 590.848450,823.906555
	C602.765808,790.391541 614.870300,756.943115 627.113647,722.714661
z"/>
<path fill="none" opacity="0" stroke="none"
	d="
M210.531342,1.000000
	C208.525848,1.586801 206.078293,2.343117 203.573715,2.735900
	C113.493813,16.862793 51.106529,66.266304 16.058289,150.245636
	C8.134705,169.231384 3.714351,189.205414 1.378285,209.849884
	C1.000000,140.406128 1.000000,70.812241 1.000000,1.000000
	C70.687408,1.000000 140.375046,1.000000 210.531342,1.000000
z"/>
<path fill="none" opacity="0" stroke="none"
	d="
M0.999999,1045.468628
	C2.160110,1051.944458 3.196256,1058.912231 4.499078,1065.829834
	C22.017550,1158.848389 95.532181,1232.797974 188.465012,1250.829590
	C195.807007,1252.254028 203.253616,1253.139038 210.825806,1254.637451
	C141.072968,1255.000000 71.145920,1255.000000 1.000000,1255.000000
	C1.000000,1185.312622 1.000000,1115.624878 0.999999,1045.468628
z"/>
<path fill="none" opacity="0" stroke="none"
	d="
M1255.000000,210.531342
	C1254.081299,205.718170 1253.149048,200.438660 1252.245850,195.154175
	C1243.611450,144.632339 1220.856323,101.514542 1184.100586,65.853630
	C1150.809448,33.554070 1111.062012,13.525640 1065.669434,4.606133
	C1058.342407,3.166399 1050.831055,2.664419 1043.202393,1.364474
	C1113.593384,1.000000 1184.186646,1.000000 1255.000000,1.000000
	C1255.000000,70.687408 1255.000000,140.375046 1255.000000,210.531342
z"/>
<path fill="none" opacity="0" stroke="none"
	d="
M1043.468628,1255.000000
	C1048.801758,1254.081177 1054.609741,1253.198975 1060.404541,1252.238159
	C1154.838867,1236.579102 1229.730713,1165.564453 1250.237671,1072.009033
	C1252.155151,1063.261841 1252.953491,1054.269531 1254.635742,1045.195557
	C1255.000000,1114.927368 1255.000000,1184.854736 1255.000000,1255.000000
	C1184.645874,1255.000000 1114.291626,1255.000000 1043.468628,1255.000000
z"/>
<path fill="#04B2FC" opacity="1.000000" stroke="none"
	d="
M576.886658,235.825745
	C513.929871,244.143677 456.278595,265.618225 404.342285,301.298859
	C325.380402,355.546204 271.207367,428.502167 242.873352,520.189331
	C232.206726,554.705872 226.681473,590.182434 225.687393,626.334412
	C225.336868,639.081909 213.779678,646.045715 203.087799,639.999512
	C198.358887,637.325256 195.990509,633.208374 195.737396,627.756958
	C193.743759,584.818665 198.188477,542.533630 209.492798,501.093109
	C233.704498,412.335297 280.947083,338.134918 351.703949,279.249359
	C392.724976,245.110672 438.911560,220.098846 489.690460,203.523438
	C545.979919,185.149246 603.678589,177.555359 662.638123,182.451935
	C758.566772,190.418808 843.621155,225.157669 915.597656,289.620972
	C991.419800,357.528534 1037.383423,442.239471 1054.578247,542.490356
	C1059.380249,570.488342 1060.667969,598.778198 1059.221313,627.166931
	C1058.789673,635.635620 1052.149170,641.897278 1043.888306,641.705933
	C1035.692627,641.516113 1029.327271,634.985535 1029.114380,626.496094
	C1027.964233,580.645691 1019.480774,536.197449 1003.287476,493.285797
	C984.768982,444.212311 957.421387,400.533234 921.851746,362.049713
	C864.434509,299.928955 794.434387,259.346832 711.923096,240.679474
	C667.424805,230.612167 622.478699,229.608536 576.886658,235.825745
z"/>
<path fill="#014C9C" opacity="1.000000" stroke="none"
	d="
M1059.025146,726.036865
	C1057.371338,753.394714 1051.681274,779.452087 1043.176758,804.972778
	C1028.613159,848.675232 1005.703857,887.551636 975.996216,922.613281
	C945.346191,958.787170 909.493652,988.817139 868.953247,1013.215515
	C838.489014,1031.549683 806.318604,1046.240234 772.418274,1057.198364
	C743.370300,1066.587891 713.744446,1073.118286 683.475159,1076.758301
	C674.242188,1077.868652 664.935669,1078.691528 655.644897,1078.922119
	C641.024353,1079.284912 626.371826,1079.489136 611.762451,1078.954224
	C575.369751,1077.622070 539.765503,1071.252197 504.831177,1061.042603
	C456.977386,1047.057373 412.518524,1025.871826 371.366913,997.785034
	C327.049255,967.537476 288.797302,930.989563 258.538147,886.555542
	C228.241287,842.066162 207.915161,793.417236 199.940033,739.933350
	C198.765533,732.056641 197.659180,724.146545 197.077225,716.211182
	C196.480942,708.080383 201.971649,701.906372 209.753204,701.096130
	C217.160812,700.324829 224.076996,705.758301 225.105148,713.689331
	C228.110825,736.874390 233.378128,759.536011 241.396881,781.464539
	C255.477829,819.971313 275.858795,854.953186 302.018707,886.501099
	C323.914978,912.907349 348.775146,936.211060 376.698669,956.182190
	C405.820160,977.010132 437.104370,993.825928 470.383453,1007.060608
	C499.414032,1018.605713 529.295593,1026.951172 560.052490,1032.250366
	C593.999573,1038.099121 628.151184,1039.361328 662.509033,1037.179321
	C700.577148,1034.761719 737.661377,1027.460449 773.709167,1015.132507
	C824.195923,997.866577 869.960083,972.248047 910.469299,937.307434
	C949.186584,903.912292 980.623230,864.898560 1002.607727,818.633057
	C1017.125122,788.081848 1026.985107,756.071350 1030.177490,722.217407
	C1030.411255,719.737915 1030.794678,717.271545 1030.994873,714.789978
	C1031.681519,706.275269 1038.299561,700.531311 1046.909180,701.032715
	C1054.192261,701.456909 1060.057739,708.227600 1059.828857,716.132446
	C1059.737671,719.283081 1059.311646,722.424072 1059.025146,726.036865
z"/>
<path fill="#FCFCFC" opacity="1.000000" stroke="none"
	d="
M476.289886,380.722290
	C519.700562,413.632172 562.792786,446.369934 605.963074,479.004486
	C619.832214,489.488892 620.406738,510.676025 606.693909,521.401184
	C555.006897,561.827087 503.265930,602.184082 451.508881,642.520325
	C439.794403,651.649841 424.469788,649.683655 415.630829,638.112671
	C406.939636,626.735107 409.139038,609.791809 420.328156,600.978149
	C461.542419,568.513733 502.724640,536.008545 543.916748,503.516052
	C544.801941,502.817810 545.661865,502.087646 546.931580,501.045776
	C534.656250,491.628723 522.684692,482.440857 510.708984,473.258423
	C480.711945,450.257996 450.680481,427.302307 420.733856,404.236450
	C411.243500,396.926636 407.938660,384.862244 412.009918,373.781433
	C415.906067,363.177094 426.262421,355.996185 437.783386,357.262268
	C442.820557,357.815857 448.071014,360.110565 452.368622,362.922699
	C460.570587,368.289581 468.158752,374.594543 476.289886,380.722290
z"/>
<path fill="#FCFBFC" opacity="1.000000" stroke="none"
	d="
M840.175781,601.930786
	C851.660828,621.733337 839.970337,642.180664 817.513428,642.294128
	C764.888489,642.560120 712.263611,642.854370 659.638855,643.152161
	C644.307800,643.238892 632.982788,632.595154 632.721069,617.794189
	C632.456238,602.823853 643.709106,591.565979 659.272949,591.478088
	C712.231201,591.179077 765.190369,591.006775 818.148254,590.652649
	C827.452515,590.590454 834.437561,594.513062 840.175781,601.930786
z"/>
<path fill="#04B0FA" opacity="1.000000" stroke="none"
	d="
M881.599548,707.041748
	C898.571777,707.022522 915.552734,706.662842 932.513306,707.098633
	C944.680847,707.411377 956.084290,710.642761 963.297913,721.609070
	C973.543579,737.184692 969.119263,754.248718 951.963440,765.564148
	C962.635742,769.094727 969.792236,775.774231 972.168091,786.867371
	C976.205811,805.720520 966.247314,821.878723 947.424133,826.743958
	C943.739075,827.696411 939.898010,828.538574 936.122803,828.564697
	C918.163879,828.689026 900.202820,828.513855 881.930542,827.797363
	C881.612244,787.113586 881.605896,747.077637 881.599548,707.041748
M942.514709,780.909851
	C931.271667,773.653809 918.979492,778.567078 907.258057,776.968384
	C907.258057,787.279114 907.258057,796.691589 907.258057,806.199158
	C916.269409,806.199158 924.900330,806.426331 933.512207,806.118958
	C939.219238,805.915161 943.953125,803.168640 946.046509,797.668335
	C948.256042,791.862854 947.576782,786.186218 942.514709,780.909851
M906.935852,735.616638
	C906.935852,742.510803 906.935852,749.404968 906.935852,756.084473
	C915.596863,756.084473 923.572327,756.598572 931.448914,755.936584
	C938.980286,755.303528 942.848755,750.461365 943.014343,743.377563
	C943.194397,735.673218 939.818054,730.652832 932.095886,729.858459
	C923.951599,729.020508 915.654175,729.670532 907.170227,729.670532
	C907.093872,731.393066 907.021606,733.023743 906.935852,735.616638
z"/>
<path fill="#FAF9FA" opacity="1.000000" stroke="none"
	d="
M298.597900,707.114502
	C314.417175,707.075989 330.243347,706.720215 346.054260,707.065125
	C378.498993,707.772827 399.908691,730.008850 400.747498,763.586548
	C401.140381,779.312073 399.127472,794.487915 389.479187,807.699097
	C378.749847,822.390625 363.486115,828.007690 346.150909,828.602051
	C330.847656,829.126709 315.512146,828.714844 300.190887,828.687317
	C299.746124,828.686523 299.301971,828.357544 298.671814,827.479187
	C298.523376,786.889404 298.560638,747.001953 298.597900,707.114502
M333.534943,805.751465
	C336.863617,805.735474 340.196259,805.818970 343.520294,805.686401
	C358.935150,805.071655 368.645416,797.696838 372.714661,783.160889
	C375.598236,772.860229 375.563904,762.408569 372.765411,752.086426
	C369.427277,739.773743 361.311279,732.090576 348.699280,730.523804
	C340.717865,729.532227 332.513092,730.338623 324.209656,730.338623
	C324.209656,755.447510 324.209656,780.426025 324.209656,805.742371
	C327.277130,805.742371 329.918182,805.742371 333.534943,805.751465
z"/>
<path fill="#F8F8F9" opacity="1.000000" stroke="none"
	d="
M421.710144,707.136658
	C421.710114,707.136658 421.914032,707.138123 422.426819,707.062134
	C449.291901,706.991272 475.644165,706.996460 501.996429,707.001648
	C501.996429,714.454834 501.996429,721.907959 501.996429,729.928711
	C483.565643,729.928711 465.363068,729.928711 446.867157,729.928711
	C446.867157,738.750793 446.867157,747.007019 446.867157,755.995789
	C448.588379,755.995789 450.334991,755.996338 452.081635,755.995667
	C466.057709,755.989990 480.033875,756.006104 494.009766,755.956238
	C496.323059,755.947998 498.504089,755.815308 498.021423,760.037964
	C498.102692,764.265320 498.166870,767.625549 498.231049,770.985718
	C498.113403,773.180420 497.995758,775.375122 497.432678,778.061768
	C481.665924,778.613403 466.344299,778.640381 451.023804,778.787903
	C449.634644,778.801270 448.252991,779.590271 446.867859,780.019043
	C446.867859,788.417786 446.867859,796.816467 446.867859,805.668274
	C465.698364,805.668274 484.206238,805.668274 502.626160,805.668274
	C502.626160,813.555908 502.626160,820.982117 501.851929,828.614380
	C474.684479,828.780579 448.291199,828.740662 421.897949,828.700745
	C421.897949,828.700745 421.688446,828.277893 421.635437,827.731018
	C421.585449,825.191650 421.589355,823.199219 421.591431,821.206726
	C421.631134,783.183350 421.670593,745.160034 421.710144,707.136658
z"/>
<path fill="#05B0FA" opacity="1.000000" stroke="none"
	d="
M831.068787,808.946472
	C830.420044,804.999146 828.491089,803.863708 824.809509,803.930176
	C811.497009,804.170654 798.177612,804.024841 784.487732,804.024841
	C782.030823,810.899841 779.390930,817.683899 777.228027,824.616821
	C776.279724,827.656616 774.978638,828.923767 771.704834,828.825928
	C764.399841,828.607483 757.083801,828.757690 749.075378,828.757690
	C752.664124,818.735779 756.035339,809.240051 759.463013,799.764709
	C769.935669,770.814270 780.525330,741.905457 790.813843,712.889832
	C792.366211,708.511902 794.177124,706.390381 799.149170,706.847717
	C804.766296,707.364319 810.479309,707.207336 816.126099,706.896545
	C819.622986,706.704102 821.009216,708.119446 822.135132,711.229370
	C834.988403,746.732117 847.981140,782.184326 860.930969,817.652039
	C862.177246,821.065491 863.385132,824.492981 864.903259,828.730164
	C856.101379,828.730164 847.884521,828.823730 839.676086,828.602356
	C838.732971,828.576904 837.427795,826.949890 836.989380,825.799072
	C834.918030,820.362305 833.089722,814.832886 831.068787,808.946472
M821.214050,781.322571
	C820.504761,778.324768 820.002014,775.259644 819.049988,772.341003
	C815.226929,760.620483 811.264771,748.945374 806.977722,736.128357
	C801.689697,751.978760 796.806213,766.616699 791.787964,781.658447
	C801.871948,781.658447 811.175293,781.658447 821.214050,781.322571
z"/>
<path fill="#F9F9FA" opacity="1.000000" stroke="none"
	d="
M627.016846,723.094971
	C614.870300,756.943115 602.765808,790.391541 590.848450,823.906555
	C589.537231,827.593994 587.907837,829.161316 583.792480,828.889160
	C577.322815,828.461426 570.799133,828.901062 564.313965,828.617249
	C562.946960,828.557373 560.869507,827.241211 560.429443,826.028503
	C546.179749,786.754761 532.090576,747.422729 517.988159,708.095459
	C517.940308,707.962097 518.047363,707.773254 518.209900,707.009399
	C526.305176,707.009399 534.553467,706.812561 542.772400,707.214905
	C544.052856,707.277649 545.730957,709.891724 546.328064,711.633606
	C554.904358,736.653137 563.323425,761.726624 571.790100,786.783813
	C572.839539,789.889648 573.944885,792.976562 575.336975,796.968933
	C582.431274,776.010620 589.190125,756.042236 595.949951,736.074097
	C598.880981,727.416138 601.717407,718.723511 604.849243,710.138733
	C605.321594,708.843872 607.145996,707.209961 608.395081,707.166504
	C616.203857,706.894104 624.026855,707.028992 632.614746,707.028992
	C630.683899,712.534607 628.898743,717.624634 627.016846,723.094971
z"/>
<path fill="#05B0F7" opacity="1.000000" stroke="none"
	d="
M654.394775,707.064087
	C662.684204,707.064087 670.973633,707.064087 679.803284,707.064087
	C679.803284,739.996216 679.803284,772.553711 679.803284,805.470703
	C697.776001,805.470703 715.210876,805.470703 733.278015,805.470703
	C733.278015,813.200500 733.278015,820.590942 732.904602,828.371582
	C732.346497,828.815735 732.161743,828.869751 731.976929,828.923828
	C731.539062,828.859741 731.101257,828.795654 729.877563,828.768982
	C704.345520,828.791199 679.599304,828.776001 654.853088,828.760742
	C654.834290,828.531006 654.727173,828.354980 654.396484,827.706055
	C654.305725,787.140991 654.350281,747.102539 654.394775,707.064087
z"/>
<path fill="#00020E" opacity="1.000000" stroke="none"
	d="
M881.203613,707.237427
	C881.605896,747.077637 881.612244,787.113586 881.559692,827.546753
	C881.001038,826.686096 880.067200,825.429077 880.064758,824.170166
	C879.989746,786.350098 880.000183,748.529968 880.042908,710.709839
	C880.044128,709.617310 880.541504,708.525330 881.203613,707.237427
z"/>
<path fill="#010310" opacity="1.000000" stroke="none"
	d="
M501.889587,706.611572
	C475.644165,706.996460 449.291901,706.991272 422.471344,706.970337
	C423.143036,706.303528 424.280609,705.089172 425.423340,705.084290
	C449.878906,704.979980 474.335144,704.997070 498.791016,705.067200
	C499.789368,705.070068 500.785553,705.819763 501.889587,706.611572
z"/>
<path fill="#00000C" opacity="1.000000" stroke="none"
	d="
M298.202728,707.294983
	C298.560638,747.001953 298.523376,786.889404 298.356964,827.205811
	C297.815735,826.459412 297.045563,825.284546 297.043640,824.108459
	C296.987061,789.314819 296.980804,754.521057 297.049255,719.727478
	C297.057281,715.643005 297.543182,711.559387 298.202728,707.294983
z"/>
<path fill="#00020E" opacity="1.000000" stroke="none"
	d="
M654.028381,707.284790
	C654.350281,747.102539 654.305725,787.140991 654.243530,827.662354
	C653.822693,826.783813 653.069702,825.423096 653.067383,824.061096
	C653.001770,786.322571 653.006836,748.584045 653.037720,710.845459
	C653.038635,709.731934 653.444702,708.618835 654.028381,707.284790
z"/>
<path fill="#040610" opacity="1.000000" stroke="none"
	d="
M421.299530,707.295166
	C421.670593,745.160034 421.631134,783.183350 421.591431,821.206726
	C421.589355,823.199219 421.585449,825.191650 421.536499,827.663086
	C420.990967,826.508240 420.058929,824.875305 420.055389,823.240479
	C419.974792,786.048096 419.986053,748.855408 420.035309,711.662903
	C420.037170,710.259399 420.591827,708.856750 421.299530,707.295166
z"/>
<path fill="#010310" opacity="1.000000" stroke="none"
	d="
M422.165894,829.044922
	C448.291199,828.740662 474.684479,828.780579 501.540100,828.903931
	C500.778656,829.322205 499.555542,829.945801 498.330841,829.948914
	C473.982056,830.010925 449.633118,830.008179 425.284210,829.979858
	C424.333832,829.978760 423.383942,829.594727 422.165894,829.044922
z"/>
<path fill="#010310" opacity="1.000000" stroke="none"
	d="
M655.138428,829.094971
	C679.599304,828.776001 704.345520,828.791199 729.558350,828.873047
	C728.812317,829.290466 727.600586,829.943542 726.387024,829.947021
	C703.688538,830.011475 680.989746,830.005981 658.291077,829.978271
	C657.335083,829.977112 656.379517,829.620239 655.138428,829.094971
z"/>
<path fill="#00020E" opacity="1.000000" stroke="none"
	d="
M447.345184,780.013306
	C448.252991,779.590271 449.634644,778.801270 451.023804,778.787903
	C466.344299,778.640381 481.665924,778.613403 497.445923,778.468140
	C496.154236,778.914185 494.407837,779.891785 492.652893,779.907349
	C477.710297,780.039917 462.766174,779.997620 447.345184,780.013306
z"/>
<path fill="#00020E" opacity="1.000000" stroke="none"
	d="
M498.593811,770.860474
	C498.166870,767.625549 498.102692,764.265320 498.143433,760.457764
	C501.361603,763.395325 500.297485,767.056152 498.593811,770.860474
z"/>
<path fill="#010310" opacity="1.000000" stroke="none"
	d="
M732.095032,829.100952
	C732.161743,828.869751 732.346497,828.815735 732.820374,828.747192
	C732.810791,828.914429 732.511963,829.096191 732.095032,829.100952
z"/>
<path fill="#02162B" opacity="1.000000" stroke="none"
	d="
M942.793823,781.160156
	C947.576782,786.186218 948.256042,791.862854 946.046509,797.668335
	C943.953125,803.168640 939.219238,805.915161 933.512207,806.118958
	C924.900330,806.426331 916.269409,806.199158 907.258057,806.199158
	C907.258057,796.691589 907.258057,787.279114 907.258057,776.968384
	C918.979492,778.567078 931.271667,773.653809 942.793823,781.160156
z"/>
<path fill="#02172D" opacity="1.000000" stroke="none"
	d="
M906.942627,735.135498
	C907.021606,733.023743 907.093872,731.393066 907.170227,729.670532
	C915.654175,729.670532 923.951599,729.020508 932.095886,729.858459
	C939.818054,730.652832 943.194397,735.673218 943.014343,743.377563
	C942.848755,750.461365 938.980286,755.303528 931.448914,755.936584
	C923.572327,756.598572 915.596863,756.084473 906.935852,756.084473
	C906.935852,749.404968 906.935852,742.510803 906.942627,735.135498
z"/>
<path fill="#051528" opacity="1.000000" stroke="none"
	d="
M333.047058,805.746948
	C329.918182,805.742371 327.277130,805.742371 324.209656,805.742371
	C324.209656,780.426025 324.209656,755.447510 324.209656,730.338623
	C332.513092,730.338623 340.717865,729.532227 348.699280,730.523804
	C361.311279,732.090576 369.427277,739.773743 372.765411,752.086426
	C375.563904,762.408569 375.598236,772.860229 372.714661,783.160889
	C368.645416,797.696838 358.935150,805.071655 343.520294,805.686401
	C340.196259,805.818970 336.863617,805.735474 333.047058,805.746948
z"/>
<path fill="#01182E" opacity="1.000000" stroke="none"
	d="
M820.846313,781.490479
	C811.175293,781.658447 801.871948,781.658447 791.787964,781.658447
	C796.806213,766.616699 801.689697,751.978760 806.977722,736.128357
	C811.264771,748.945374 815.226929,760.620483 819.049988,772.341003
	C820.002014,775.259644 820.504761,778.324768 820.846313,781.490479
z"/>
</svg>